<!DOCTYPE svg PUBLIC "-//W3C//DTD SVG 1.1//EN" "http://www.w3.org/Graphics/SVG/1.1/DTD/svg11.dtd">
<!-- Uploaded to: SVG Repo, www.svgrepo.com, Transformed by: SVG Repo Mixer Tools -->
<svg fill="#8875bd" version="1.1" id="Layer_1" xmlns="http://www.w3.org/2000/svg" xmlns:xlink="http://www.w3.org/1999/xlink" viewBox="0 0 496 496" xml:space="preserve" width="256px" height="256px" stroke="#8875bd">
<g id="SVGRepo_bgCarrier" stroke-width="0"/>
<g id="SVGRepo_tracerCarrier" stroke-linecap="round" stroke-linejoin="round" stroke="#CCCCCC" stroke-width="0.992"/>
<g id="SVGRepo_iconCarrier"> <g> <g> <g> <path d="M482.704,333.432l-25.288-46.688C461.736,268.904,464,250.512,464,232C464,104.072,359.928,0,232,0S0,104.072,0,232 c0,125.24,99.768,227.56,224,231.8v0.2h16v-0.304c19.144-0.656,38.032-3.632,56.352-8.912C316.552,479.88,347.472,496,382.12,496 h3.768C446.6,496,496,446.6,496,385.88C496,367.624,491.4,349.496,482.704,333.432z M205.896,17.632 c-22.576,19.016-57.472,54.592-80.016,107.024c-33.56-7.768-55.416-17.56-65.936-23.056 C94.456,56.184,146.496,24.824,205.896,17.632z M50.664,114.864c10.704,5.856,33.528,16.552,69.208,24.984 c-8.88,24.704-14.792,52.76-15.672,84.152h-88C17.672,183.88,30.128,146.536,50.664,114.864z M16.2,240h88 c0.88,31.392,6.792,59.448,15.672,84.152c-35.68,8.44-58.504,19.136-69.208,24.984C30.136,317.464,17.672,280.12,16.2,240z M59.944,362.4c10.512-5.496,32.376-15.288,65.936-23.056c22.544,52.44,57.44,88.008,80.016,107.024 C146.496,439.176,94.456,407.816,59.944,362.4z M224,440.496c-19.448-15.032-57.856-49.72-82.176-104.472 c22.88-4.32,50.248-7.4,82.176-7.864V440.496z M224,312.16c-34.536,0.48-63.968,3.872-88.328,8.608 c-8.704-23.632-14.576-50.544-15.472-80.768H224V312.16z M224,224H120.2c0.896-30.224,6.768-57.136,15.48-80.76 c24.352,4.736,53.784,8.128,88.32,8.6V224z M224,135.84c-31.928-0.464-59.296-3.552-82.176-7.864 c24.32-54.744,62.728-89.44,82.176-104.472V135.84z M447.8,224h-24.368L384,151.2l-25.96,47.928 c-2.48-21.608-7.296-41.376-13.648-59.336c35.528-8.424,58.264-19.088,68.944-24.928C433.864,146.536,446.328,183.88,447.8,224z M447.752,240c-0.304,8.272-1.072,16.496-2.304,24.64L432.096,240H447.752z M404.056,101.6 c-10.48,5.48-32.232,15.232-65.608,22.984c-22.328-52.68-57.088-87.976-79.832-106.888 C317.8,25.008,369.648,56.312,404.056,101.6z M240,23.52c19.44,15.04,57.784,49.76,82.08,104.48 c-22.856,4.304-50.2,7.384-82.08,7.84V23.52z M240,151.84c34.52-0.48,63.936-3.864,88.288-8.6 c8.704,23.624,14.56,50.544,15.448,80.752H240V151.84z M240,240h95.904l-41.008,75.712c-17.736-2.12-36.128-3.32-54.896-3.584 V240z M240,328.128c15.904,0.232,31.528,1.144,46.68,2.752l-1.384,2.552C276.6,349.496,272,367.632,272,385.88 c0,7.856,0.864,15.512,2.432,22.912c-13.24,14.44-25.728,25.048-34.432,31.744V328.128z M258.48,446.232 c6.336-5.32,13.616-11.904,21.344-19.832c1.984,5,4.328,9.8,7,14.416C277.504,443.256,268.048,445.064,258.48,446.232z M385.88,480h-3.768C330.224,480,288,437.776,288,385.88c0-15.6,3.928-31.104,11.36-44.832L384,184.8l84.64,156.256 c7.432,13.728,11.36,29.232,11.36,44.832C480,437.776,437.776,480,385.88,480z"/> <path d="M396,304h-4v-16h-16v16h-4c-19.848,0-36,16.152-36,36c0,19.848,16.152,36,36,36h24c11.024,0,20,8.976,20,20 s-8.976,20-20,20h-24c-11.024,0-20-8.976-20-20v-4h-16v4c0,19.848,16.152,36,36,36h4v16h16v-16h4c19.848,0,36-16.152,36-36 c0-19.848-16.152-36-36-36h-24c-11.024,0-20-8.976-20-20s8.976-20,20-20h24c11.024,0,20,8.976,20,20v4h16v-4 C432,320.152,415.848,304,396,304z"/> <rect x="440" y="360" width="16" height="16"/> <rect x="312" y="360" width="16" height="16"/> </g> </g> </g> </g>
</svg>